<svg width="32" height="32" viewBox="0 0 32 32" fill="none" xmlns="http://www.w3.org/2000/svg">
<path d="M24 21.3333C24 21.8387 24.3613 22.264 24.86 22.348L28.9133 23.0227C30.7027 23.3213 32 24.8547 32 26.6667C32 28.872 30.2053 30.6667 28 30.6667V32H25.3333V30.6667C23.128 30.6667 21.3333 28.872 21.3333 26.6667H24C24 27.4027 24.5973 28 25.3333 28H28C28.736 28 29.3333 27.4027 29.3333 26.6667C29.3333 26.1613 28.972 25.736 28.4733 25.652L24.42 24.9773C22.6307 24.6787 21.3333 23.1453 21.3333 21.3333C21.3333 19.128 23.128 17.3333 25.3333 17.3333V16H28V17.3333C30.2053 17.3333 32 19.128 32 21.3333H29.3333C29.3333 20.5973 28.736 20 28 20H25.3333C24.5973 20 24 20.5973 24 21.3333ZM32 6.66667V13.3333H2.66667V29.3333H19.4907C20.0373 30.396 20.824 31.316 21.7973 32H0V6.66667C0 4.46133 1.79467 2.66667 4 2.66667H8V0H10.6667V2.66667H21.3333V0H24V2.66667H28C30.2053 2.66667 32 4.46133 32 6.66667ZM29.3333 6.66667C29.3333 5.93067 28.736 5.33333 28 5.33333H4C3.264 5.33333 2.66667 5.93067 2.66667 6.66667V10.6667H29.3333V6.66667Z" fill="#222222"/>
</svg>
