<svg width="56" height="57" viewBox="0 0 56 57" fill="none" xmlns="http://www.w3.org/2000/svg">
<g clip-path="url(#clip0_52_1404)">
<g clip-path="url(#clip1_52_1404)">
<path d="M50.9045 20.9241C49.8725 19.984 48.5423 19.5106 47.1444 19.5678C45.7499 19.6337 44.4665 20.239 43.5265 21.2692L37.9487 27.3985C36.9931 25.822 35.2604 24.764 33.285 24.764H16.1875C13.3188 24.764 10.9844 27.0985 10.9844 29.9671V42.1077C10.9844 44.9764 13.3188 47.3109 16.1875 47.3109H34.3083L51.2843 28.2588C53.18 26.1307 53.0083 22.8406 50.9045 20.9241ZM48.6949 25.952L32.7543 43.8421H16.1875C15.2319 43.8421 14.4531 43.0651 14.4531 42.1077V29.9671C14.4531 29.0097 15.2319 28.2327 16.1875 28.2327H33.285C34.3776 28.2327 35.2656 29.1225 35.2656 30.2151C35.2656 31.1933 34.5355 32.038 33.5642 32.175L24.6131 33.4532L25.1039 36.8873L34.0533 35.609C36.0912 35.3177 37.7475 33.8972 38.4153 32.038L46.0916 23.602C46.4073 23.2568 46.8374 23.0539 47.3057 23.0313C47.7774 23.0123 48.2214 23.1718 48.5683 23.4875C49.2742 24.1309 49.3314 25.2375 48.6949 25.952ZM25.7266 21.29C27.3482 21.29 28.8727 20.6587 30.0191 19.5123C32.3866 17.1449 32.3848 13.2928 30.0053 10.9133L25.7266 6.73169L21.434 10.9289C19.0666 13.2946 19.0666 17.1483 21.434 19.514C22.5804 20.6605 24.1049 21.29 25.7266 21.29ZM23.8743 13.3917L25.7266 11.5793L27.5667 13.3778C28.5813 14.3924 28.5813 16.0436 27.5667 17.0582C26.5868 18.0398 24.8715 18.0398 23.8881 17.0582C22.8735 16.0436 22.8735 14.3924 23.8743 13.3917Z" fill="#222222"/>
</g>
</g>
<defs>
<clipPath id="clip0_52_1404">
<rect width="55.5" height="55.5" fill="white" transform="translate(0 0.599609)"/>
</clipPath>
<clipPath id="clip1_52_1404">
<rect width="41.625" height="41.625" fill="white" transform="translate(10.9844 5.6875)"/>
</clipPath>
</defs>
</svg>
