<svg width="36" height="36" viewBox="0 0 36 36" fill="none" xmlns="http://www.w3.org/2000/svg">
<g clip-path="url(#clip0_61_5)">
<path d="M34.0011 13.2799C33.1489 12.4999 32.0367 12.1099 30.8667 12.1533C29.7111 12.2111 28.6422 12.7166 27.8478 13.5688L23.1967 18.6677C22.4022 17.3533 20.9578 16.4722 19.3111 16.4722H6.52778C3.33556 16.4722 0.75 19.0577 0.75 22.2499V29.4722C0.75 32.6644 3.33556 35.2499 6.52778 35.2499H13.6922C17.8089 35.2499 21.7378 33.4877 24.4822 30.4111L34.3189 19.3755C35.8933 17.5988 35.7489 14.8688 34.0011 13.2655V13.2799ZM32.1667 17.4688L22.33 28.5044C20.1344 30.9599 17 32.3755 13.7067 32.3755H6.52778C4.93889 32.3755 3.63889 31.0755 3.63889 29.4866V22.2644C3.63889 20.6755 4.93889 19.3755 6.52778 19.3755H19.3256C20.2356 19.3755 20.9722 20.1122 20.9722 21.0222C20.9722 21.8311 20.3656 22.5388 19.5567 22.6544L12.1033 23.7233C11.3089 23.8388 10.76 24.5611 10.8756 25.3555C10.9911 26.1499 11.7278 26.6988 12.5078 26.5833L19.9611 25.5144C21.6656 25.2688 23.0378 24.0844 23.5867 22.5388L29.9856 15.5188C30.2456 15.2299 30.6067 15.0566 30.9967 15.0422C31.3867 15.0422 31.7622 15.1577 32.0511 15.4177C32.6433 15.9522 32.6867 16.8766 32.1522 17.4688H32.1667Z" fill="#222222"/>
<path d="M13.75 15.0279H14.2989C16.3933 15.0279 18.0833 13.3234 18.0833 11.2434C18.0833 9.38008 16.7544 7.80564 14.92 7.5023L10.1822 6.70786C9.74889 6.63564 9.43111 6.26008 9.43111 5.8123C9.43111 5.32119 9.83555 4.91675 10.3267 4.91675H14.14C14.66 4.91675 15.1367 5.19119 15.3967 5.63897C15.7867 6.3323 16.6678 6.56341 17.3756 6.15897C18.0689 5.75453 18.3 4.87341 17.8956 4.18008C17.13 2.85119 15.6856 2.01341 14.14 2.01341H13.75C13.75 1.21897 13.1 0.56897 12.3056 0.56897C11.5111 0.56897 10.8611 1.21897 10.8611 2.01341H10.3122C8.21777 2.01341 6.52778 3.71786 6.52778 5.79786C6.52778 7.66119 7.85666 9.23564 9.69111 9.53897L14.4289 10.3334C14.8622 10.4056 15.18 10.7812 15.18 11.229C15.18 11.7201 14.7756 12.1245 14.2844 12.1245H10.4711C9.95111 12.1245 9.47444 11.8501 9.21444 11.4023C8.81 10.709 7.92889 10.4779 7.23555 10.8823C6.54222 11.2867 6.31111 12.1679 6.71555 12.8612C7.48111 14.1901 8.92555 15.0279 10.4711 15.0279H10.8611C10.8611 15.8223 11.5111 16.4723 12.3056 16.4723C13.1 16.4723 13.75 15.8223 13.75 15.0279Z" fill="#222222"/>
</g>
<defs>
<clipPath id="clip0_61_5">
<rect width="34.6667" height="34.6667" fill="white" transform="translate(0.75 0.583252)"/>
</clipPath>
</defs>
</svg>
