<svg width="32" height="32" viewBox="0 0 32 32" fill="none" xmlns="http://www.w3.org/2000/svg">
<g clip-path="url(#clip0_52_109)">
<g clip-path="url(#clip1_52_109)">
<path d="M26.4622 12.48C25.9378 12 25.2533 11.76 24.5333 11.7867C23.8222 11.8222 23.1644 12.1333 22.6756 12.6578L19.8133 15.7956C19.3244 14.9867 18.4356 14.4444 17.4222 14.4444H9.55556C7.59111 14.4444 6 16.0356 6 18V22.4444C6 24.4089 7.59111 26 9.55556 26H13.9644C16.4978 26 18.9156 24.9156 20.6044 23.0222L26.6578 16.2311C27.6267 15.1378 27.5378 13.4578 26.4622 12.4711V12.48ZM25.3333 15.0578L19.28 21.8489C17.9289 23.36 16 24.2311 13.9733 24.2311H9.55556C8.57778 24.2311 7.77778 23.4311 7.77778 22.4533V18.0089C7.77778 17.0311 8.57778 16.2311 9.55556 16.2311H17.4311C17.9911 16.2311 18.4444 16.6844 18.4444 17.2444C18.4444 17.7422 18.0711 18.1778 17.5733 18.2489L12.9867 18.9067C12.4978 18.9778 12.16 19.4222 12.2311 19.9111C12.3022 20.4 12.7556 20.7378 13.2356 20.6667L17.8222 20.0089C18.8711 19.8578 19.7156 19.1289 20.0533 18.1778L23.9911 13.8578C24.1511 13.68 24.3733 13.5733 24.6133 13.5644C24.8533 13.5644 25.0844 13.6356 25.2622 13.7956C25.6267 14.1244 25.6533 14.6933 25.3244 15.0578H25.3333Z" fill="#222222"/>
<path d="M14 13.5556H14.3378C15.6267 13.5556 16.6667 12.5067 16.6667 11.2267C16.6667 10.0801 15.8489 9.11117 14.72 8.9245L11.8044 8.43561C11.5378 8.39117 11.3422 8.16006 11.3422 7.8845C11.3422 7.58228 11.5911 7.33339 11.8933 7.33339H14.24C14.56 7.33339 14.8533 7.50228 15.0133 7.77784C15.2533 8.2045 15.7956 8.34673 16.2311 8.09784C16.6578 7.84895 16.8 7.30673 16.5511 6.88006C16.08 6.06228 15.1911 5.54673 14.24 5.54673H14C14 5.05784 13.6 4.65784 13.1111 4.65784C12.6222 4.65784 12.2222 5.05784 12.2222 5.54673H11.8844C10.5956 5.54673 9.55555 6.59561 9.55555 7.87561C9.55555 9.02228 10.3733 9.99117 11.5022 10.1778L14.4178 10.6667C14.6844 10.7112 14.88 10.9423 14.88 11.2178C14.88 11.5201 14.6311 11.7689 14.3289 11.7689H11.9822C11.6622 11.7689 11.3689 11.6001 11.2089 11.3245C10.96 10.8978 10.4178 10.7556 9.99111 11.0045C9.56444 11.2534 9.42222 11.7956 9.67111 12.2223C10.1422 13.0401 11.0311 13.5556 11.9822 13.5556H12.2222C12.2222 14.0445 12.6222 14.4445 13.1111 14.4445C13.6 14.4445 14 14.0445 14 13.5556Z" fill="#222222"/>
</g>
</g>
<defs>
<clipPath id="clip0_52_109">
<rect width="32" height="32" fill="white"/>
</clipPath>
<clipPath id="clip1_52_109">
<rect width="21.3333" height="21.3333" fill="white" transform="translate(6 4.66663)"/>
</clipPath>
</defs>
</svg>
