<svg width="254" height="37" viewBox="0 0 254 37" fill="none" xmlns="http://www.w3.org/2000/svg">
<path d="M52.1479 26.2397V9.49305H63.2858V12.1894H55.2424V16.4898H62.4098V19.0041H55.2424V23.5434H63.4678V26.2397H52.1479ZM63.8155 16.5922V14.2258H70.7326V16.5922H63.8155ZM65.522 26.2397V12.6672C65.522 11.8936 65.6775 11.2754 65.9885 10.8128C66.307 10.3501 66.7432 10.0164 67.2968 9.8116C67.8581 9.59923 68.5028 9.49305 69.2309 9.49305C69.6025 9.49305 69.9135 9.49305 70.1638 9.49305C70.4217 9.49305 70.6113 9.49305 70.7326 9.49305V11.8594C70.6416 11.8594 70.5127 11.8594 70.3458 11.8594C70.179 11.8594 70.0121 11.8594 69.8452 11.8594C69.5798 11.8594 69.3447 11.886 69.1399 11.9391C68.9351 11.9922 68.7758 12.1097 68.662 12.2917C68.5483 12.4738 68.4914 12.762 68.4914 13.1564V26.2397H65.522ZM70.9893 16.5922V14.2258H77.9064V16.5922H70.9893ZM72.6958 26.2397V12.6672C72.6958 11.8936 72.8513 11.2754 73.1623 10.8128C73.4808 10.3501 73.9169 10.0164 74.4706 9.8116C75.0319 9.59923 75.6765 9.49305 76.4047 9.49305C76.7763 9.49305 77.0873 9.49305 77.3376 9.49305C77.5954 9.49305 77.7851 9.49305 77.9064 9.49305V11.8594C77.8154 11.8594 77.6865 11.8594 77.5196 11.8594C77.3527 11.8594 77.1859 11.8594 77.019 11.8594C76.7536 11.8594 76.5184 11.886 76.3137 11.9391C76.1089 11.9922 75.9496 12.1097 75.8358 12.2917C75.7221 12.4738 75.6652 12.762 75.6652 13.1564V26.2397H72.6958ZM83.9425 26.4218C82.7593 26.4218 81.7202 26.1639 80.8252 25.6482C79.9379 25.1324 79.2477 24.4119 78.7547 23.4866C78.2617 22.5612 78.0152 21.4804 78.0152 20.2442C78.0152 19.0079 78.2617 17.9271 78.7547 17.0018C79.2477 16.0689 79.9379 15.3445 80.8252 14.8288C81.7202 14.3054 82.7593 14.0438 83.9425 14.0438C85.1333 14.0438 86.1724 14.3054 87.0598 14.8288C87.9471 15.3445 88.6373 16.0689 89.1303 17.0018C89.6233 17.9271 89.8698 19.0079 89.8698 20.2442C89.8698 21.4804 89.6233 22.5612 89.1303 23.4866C88.6373 24.4119 87.9471 25.1324 87.0598 25.6482C86.1724 26.1639 85.1333 26.4218 83.9425 26.4218ZM83.9425 24.0326C84.5189 24.0326 85.0271 23.8772 85.467 23.5662C85.9069 23.2552 86.2482 22.8153 86.4909 22.2465C86.7412 21.6776 86.8663 21.0102 86.8663 20.2442C86.8663 19.4705 86.7412 18.7993 86.4909 18.2305C86.2482 17.654 85.9069 17.2103 85.467 16.8994C85.0271 16.5808 84.5189 16.4215 83.9425 16.4215C83.3585 16.4215 82.8465 16.5808 82.4066 16.8994C81.9743 17.2103 81.633 17.6502 81.3827 18.2191C81.14 18.7879 81.0187 19.4629 81.0187 20.2442C81.0187 21.0102 81.14 21.6776 81.3827 22.2465C81.633 22.8153 81.9781 23.2552 82.418 23.5662C82.8579 23.8772 83.3661 24.0326 83.9425 24.0326ZM90.7977 26.2397V14.2258H93.6419V16.3078H93.7329C93.9529 15.5797 94.3056 15.0222 94.791 14.6354C95.2764 14.241 95.8794 14.0438 96.5999 14.0438C96.7819 14.0438 96.9564 14.0552 97.1232 14.0779C97.2901 14.0931 97.4304 14.1158 97.5442 14.1462V16.8539C97.4153 16.8084 97.2181 16.7704 96.9526 16.7401C96.6947 16.7022 96.4331 16.6832 96.1676 16.6832C95.7277 16.6832 95.3219 16.7856 94.9503 16.9904C94.5862 17.1876 94.2942 17.4872 94.0743 17.8891C93.8619 18.2911 93.7557 18.7917 93.7557 19.3909V26.2397H90.7977ZM103.478 26.2966C102.75 26.2966 102.105 26.1829 101.544 25.9553C100.99 25.7278 100.554 25.3713 100.235 24.8859C99.9245 24.4005 99.769 23.771 99.769 22.9973V11.2451H102.738V22.5081C102.738 22.895 102.795 23.187 102.909 23.3842C103.023 23.5814 103.182 23.7141 103.387 23.7823C103.592 23.843 103.827 23.8734 104.092 23.8734C104.259 23.8734 104.415 23.8696 104.559 23.862C104.703 23.8544 104.82 23.843 104.911 23.8279L105.105 26.217C104.938 26.2322 104.718 26.2473 104.445 26.2625C104.172 26.2853 103.85 26.2966 103.478 26.2966ZM98.0625 16.5922V14.2258H105.037V16.5922H98.0625ZM109.127 9.49305V26.2397H106.158V9.49305H109.127ZM115.857 26.4218C114.674 26.4218 113.65 26.1677 112.786 25.6595C111.921 25.1438 111.25 24.4232 110.772 23.4979C110.294 22.5726 110.055 21.488 110.055 20.2442C110.055 19.023 110.29 17.9498 110.76 17.0245C111.231 16.0916 111.894 15.3635 112.751 14.8402C113.616 14.3092 114.632 14.0438 115.8 14.0438C116.946 14.0438 117.935 14.3054 118.77 14.8288C119.612 15.3445 120.256 16.0651 120.704 16.9904C121.151 17.9157 121.375 18.9965 121.375 20.2328V20.9495H111.227V19.0268H118.61C118.595 18.4807 118.463 18.0067 118.212 17.6047C117.962 17.1952 117.628 16.8766 117.211 16.6491C116.794 16.414 116.324 16.2964 115.8 16.2964C115.232 16.2964 114.735 16.4329 114.31 16.706C113.885 16.9714 113.555 17.3279 113.32 17.7754C113.093 18.2153 112.975 18.6931 112.968 19.2089V20.995C112.968 21.579 113.081 22.11 113.309 22.5878C113.544 23.0656 113.878 23.4486 114.31 23.7368C114.75 24.0251 115.277 24.1692 115.891 24.1692C116.309 24.1692 116.695 24.1009 117.052 23.9644C117.408 23.8279 117.715 23.6345 117.973 23.3842C118.231 23.1339 118.413 22.8381 118.519 22.4968H121.25C121.106 23.2856 120.791 23.9758 120.306 24.5674C119.82 25.1514 119.194 25.6064 118.428 25.9326C117.67 26.2587 116.813 26.4218 115.857 26.4218ZM131.985 18.0029H129.197C129.19 17.4796 128.985 17.0662 128.583 16.7628C128.189 16.4519 127.677 16.2964 127.047 16.2964C126.471 16.2964 125.997 16.414 125.625 16.6491C125.253 16.8842 125.067 17.2027 125.067 17.6047C125.067 17.9309 125.2 18.2039 125.466 18.4239C125.731 18.6438 126.126 18.8107 126.649 18.9244L128.788 19.3681C129.918 19.6108 130.779 19.9939 131.37 20.5172C131.969 21.0405 132.269 21.7459 132.269 22.6333C132.269 23.4297 132.045 24.1123 131.598 24.6811C131.158 25.2424 130.555 25.6747 129.789 25.9781C129.023 26.2815 128.151 26.4332 127.172 26.4332C126.156 26.4332 125.261 26.2815 124.487 25.9781C123.714 25.6747 123.099 25.231 122.644 24.647C122.189 24.0554 121.927 23.3349 121.859 22.4854H124.806C124.866 23.0542 125.102 23.479 125.511 23.7596C125.928 24.0402 126.478 24.1805 127.161 24.1805C127.806 24.1805 128.317 24.0668 128.697 23.8392C129.084 23.6041 129.277 23.2818 129.277 22.8722C129.277 22.5081 129.129 22.2313 128.833 22.0417C128.545 21.8445 128.158 21.6966 127.673 21.598L125.659 21.1771C124.476 20.9343 123.592 20.521 123.008 19.937C122.424 19.3454 122.132 18.6021 122.132 17.7071C122.132 16.9562 122.333 16.3078 122.735 15.7617C123.145 15.2156 123.714 14.7947 124.442 14.4989C125.177 14.2031 126.031 14.0552 127.002 14.0552C128.473 14.0552 129.664 14.404 130.574 15.1018C131.484 15.7996 131.954 16.7666 131.985 18.0029ZM142.844 18.0029H140.057C140.05 17.4796 139.845 17.0662 139.443 16.7628C139.048 16.4519 138.536 16.2964 137.907 16.2964C137.33 16.2964 136.856 16.414 136.485 16.6491C136.113 16.8842 135.927 17.2027 135.927 17.6047C135.927 17.9309 136.06 18.2039 136.326 18.4239C136.591 18.6438 136.985 18.8107 137.509 18.9244L139.648 19.3681C140.778 19.6108 141.639 19.9939 142.23 20.5172C142.829 21.0405 143.129 21.7459 143.129 22.6333C143.129 23.4297 142.905 24.1123 142.458 24.6811C142.018 25.2424 141.415 25.6747 140.649 25.9781C139.883 26.2815 139.01 26.4332 138.032 26.4332C137.016 26.4332 136.121 26.2815 135.347 25.9781C134.574 25.6747 133.959 25.231 133.504 24.647C133.049 24.0554 132.787 23.3349 132.719 22.4854H135.666C135.726 23.0542 135.961 23.479 136.371 23.7596C136.788 24.0402 137.338 24.1805 138.021 24.1805C138.665 24.1805 139.177 24.0668 139.557 23.8392C139.943 23.6041 140.137 23.2818 140.137 22.8722C140.137 22.5081 139.989 22.2313 139.693 22.0417C139.405 21.8445 139.018 21.6966 138.533 21.598L136.519 21.1771C135.336 20.9343 134.452 20.521 133.868 19.937C133.284 19.3454 132.992 18.6021 132.992 17.7071C132.992 16.9562 133.193 16.3078 133.595 15.7617C134.005 15.2156 134.574 14.7947 135.302 14.4989C136.037 14.2031 136.891 14.0552 137.861 14.0552C139.333 14.0552 140.524 14.404 141.434 15.1018C142.344 15.7996 142.814 16.7666 142.844 18.0029ZM144.045 26.2397V9.49305H150.337C151.619 9.49305 152.696 9.71679 153.568 10.1643C154.448 10.6118 155.111 11.2375 155.559 12.0415C156.006 12.8454 156.23 13.7821 156.23 14.8515C156.23 15.921 156.002 16.8501 155.547 17.6389C155.1 18.4277 154.432 19.0344 153.545 19.4592C152.665 19.8839 151.581 20.0963 150.291 20.0963H145.809V17.5934H149.882C150.633 17.5934 151.247 17.4872 151.725 17.2748C152.203 17.0624 152.559 16.7553 152.794 16.3533C153.029 15.9437 153.143 15.4431 153.135 14.8515C153.143 14.2599 153.029 13.7518 152.794 13.327C152.559 12.9023 152.203 12.58 151.725 12.36C151.247 12.1325 150.629 12.0225 149.87 12.0301H147.083V26.2397H144.045ZM152.715 18.64L156.856 26.2397H153.465L149.393 18.64H152.715ZM162.277 26.4218C161.094 26.4218 160.07 26.1677 159.206 25.6595C158.341 25.1438 157.67 24.4232 157.192 23.4979C156.714 22.5726 156.475 21.488 156.475 20.2442C156.475 19.023 156.71 17.9498 157.181 17.0245C157.651 16.0916 158.315 15.3635 159.172 14.8402C160.036 14.3092 161.053 14.0438 162.221 14.0438C163.366 14.0438 164.356 14.3054 165.19 14.8288C166.032 15.3445 166.677 16.0651 167.124 16.9904C167.571 17.9157 167.795 18.9965 167.795 20.2328V20.9495H157.647V19.0268H165.031C165.015 18.4807 164.883 18.0067 164.632 17.6047C164.382 17.1952 164.048 16.8766 163.631 16.6491C163.214 16.414 162.744 16.2964 162.221 16.2964C161.652 16.2964 161.155 16.4329 160.73 16.706C160.305 16.9714 159.976 17.3279 159.74 17.7754C159.513 18.2153 159.395 18.6931 159.388 19.2089V20.995C159.388 21.579 159.502 22.11 159.729 22.5878C159.964 23.0656 160.298 23.4486 160.73 23.7368C161.17 24.0251 161.697 24.1692 162.312 24.1692C162.729 24.1692 163.116 24.1009 163.472 23.9644C163.829 23.8279 164.136 23.6345 164.394 23.3842C164.651 23.1339 164.833 22.8381 164.94 22.4968H167.67C167.526 23.2856 167.211 23.9758 166.726 24.5674C166.24 25.1514 165.615 25.6064 164.849 25.9326C164.09 26.2587 163.233 26.4218 162.277 26.4218ZM171.715 19.4023V26.2397H168.746V14.2258H171.624V16.3305H171.67C171.943 15.6631 172.386 15.117 173.001 14.6923C173.623 14.2599 174.404 14.0438 175.344 14.0438C176.186 14.0438 176.945 14.2296 177.62 14.6012C178.295 14.9653 178.83 15.5 179.224 16.2054C179.618 16.9107 179.816 17.764 179.816 18.7652V26.2397H176.858V19.2202C176.858 18.3556 176.63 17.6957 176.175 17.2407C175.72 16.778 175.106 16.5467 174.332 16.5467C173.839 16.5467 173.395 16.6491 173.001 16.8539C172.606 17.0586 172.292 17.3734 172.057 17.7981C171.829 18.2153 171.715 18.75 171.715 19.4023ZM186.694 26.4218C185.51 26.4218 184.471 26.1639 183.576 25.6482C182.689 25.1324 181.999 24.4119 181.506 23.4866C181.013 22.5612 180.766 21.4804 180.766 20.2442C180.766 19.0079 181.013 17.9271 181.506 17.0018C181.999 16.0689 182.689 15.3445 183.576 14.8288C184.471 14.3054 185.51 14.0438 186.694 14.0438C187.884 14.0438 188.923 14.3054 189.811 14.8288C190.698 15.3445 191.388 16.0689 191.881 17.0018C192.374 17.9271 192.621 19.0079 192.621 20.2442C192.621 21.4804 192.374 22.5612 191.881 23.4866C191.388 24.4119 190.698 25.1324 189.811 25.6482C188.923 26.1639 187.884 26.4218 186.694 26.4218ZM186.694 24.0326C187.27 24.0326 187.778 23.8772 188.218 23.5662C188.658 23.2552 188.999 22.8153 189.242 22.2465C189.492 21.6776 189.617 21.0102 189.617 20.2442C189.617 19.4705 189.492 18.7993 189.242 18.2305C188.999 17.654 188.658 17.2103 188.218 16.8994C187.778 16.5808 187.27 16.4215 186.694 16.4215C186.11 16.4215 185.598 16.5808 185.158 16.8994C184.725 17.2103 184.384 17.6502 184.134 18.2191C183.891 18.7879 183.77 19.4629 183.77 20.2442C183.77 21.0102 183.891 21.6776 184.134 22.2465C184.384 22.8153 184.729 23.2552 185.169 23.5662C185.609 23.8772 186.117 24.0326 186.694 24.0326ZM204.516 14.2258L200.045 26.2397H196.78L192.309 14.2258H195.46L198.418 23.0087H198.464L201.399 14.2258H204.516ZM208.561 26.4218C207.757 26.4218 207.044 26.289 206.422 26.0236C205.8 25.7581 205.307 25.3599 204.943 24.829C204.587 24.2981 204.409 23.6345 204.409 22.8381C204.409 22.1555 204.534 21.5904 204.784 21.1429C205.042 20.6954 205.391 20.339 205.831 20.0735C206.271 19.8005 206.775 19.5957 207.344 19.4592C207.913 19.315 208.504 19.2127 209.119 19.152C209.862 19.0685 210.45 18.9965 210.882 18.9358C211.322 18.8751 211.633 18.7803 211.815 18.6514C212.005 18.5225 212.099 18.3215 212.099 18.0484V17.9915C212.099 17.4834 211.91 17.0776 211.531 16.7742C211.159 16.4633 210.639 16.3078 209.972 16.3078C209.304 16.3078 208.762 16.467 208.345 16.7856C207.928 17.0966 207.693 17.5023 207.64 18.0029H204.761C204.807 17.2596 205.038 16.5922 205.455 16.0006C205.88 15.4014 206.475 14.9274 207.241 14.5785C208.007 14.222 208.925 14.0438 209.995 14.0438C211.034 14.0438 211.932 14.2144 212.691 14.5557C213.449 14.8895 214.033 15.3559 214.443 15.9551C214.853 16.5467 215.057 17.2293 215.057 18.0029V26.2397H212.202V24.5446H212.156C211.967 24.9087 211.713 25.231 211.394 25.5116C211.075 25.7923 210.681 26.016 210.211 26.1829C209.748 26.3421 209.198 26.4218 208.561 26.4218ZM209.312 24.2488C209.919 24.2488 210.431 24.1426 210.848 23.9302C211.265 23.7103 211.58 23.4183 211.792 23.0542C212.012 22.6826 212.122 22.2654 212.122 21.8028V20.5286C211.948 20.6348 211.618 20.7372 211.132 20.8357C210.647 20.9343 210.112 21.0254 209.528 21.1088C209.126 21.1619 208.755 21.2567 208.413 21.3932C208.08 21.5222 207.81 21.7004 207.605 21.9279C207.401 22.1479 207.298 22.4361 207.298 22.7926C207.306 23.2552 207.488 23.6155 207.844 23.8734C208.208 24.1237 208.698 24.2488 209.312 24.2488ZM221.002 26.2966C220.274 26.2966 219.63 26.1829 219.068 25.9553C218.515 25.7278 218.079 25.3713 217.76 24.8859C217.449 24.4005 217.294 23.771 217.294 22.9973V11.2451H220.263V22.5081C220.263 22.895 220.32 23.187 220.434 23.3842C220.547 23.5814 220.707 23.7141 220.911 23.7823C221.116 23.843 221.351 23.8734 221.617 23.8734C221.784 23.8734 221.939 23.8696 222.083 23.862C222.227 23.8544 222.345 23.843 222.436 23.8279L222.629 26.217C222.462 26.2322 222.242 26.2473 221.969 26.2625C221.696 26.2853 221.374 26.2966 221.002 26.2966ZM215.587 16.5922V14.2258H222.561V16.5922H215.587ZM223.671 26.2397V14.2258H226.64V26.2397H223.671ZM225.15 12.3828C224.672 12.3828 224.263 12.2197 223.921 11.8936C223.588 11.5674 223.421 11.173 223.421 10.7104C223.421 10.2477 223.588 9.85331 223.921 9.52718C224.263 9.20104 224.672 9.03797 225.15 9.03797C225.628 9.03797 226.034 9.20104 226.367 9.52718C226.709 9.85331 226.879 10.2477 226.879 10.7104C226.879 11.173 226.709 11.5674 226.367 11.8936C226.034 12.2197 225.628 12.3828 225.15 12.3828ZM233.507 26.4218C232.324 26.4218 231.285 26.1639 230.39 25.6482C229.502 25.1324 228.812 24.4119 228.319 23.4866C227.826 22.5612 227.58 21.4804 227.58 20.2442C227.58 19.0079 227.826 17.9271 228.319 17.0018C228.812 16.0689 229.502 15.3445 230.39 14.8288C231.285 14.3054 232.324 14.0438 233.507 14.0438C234.698 14.0438 235.737 14.3054 236.624 14.8288C237.512 15.3445 238.202 16.0689 238.695 17.0018C239.188 17.9271 239.434 19.0079 239.434 20.2442C239.434 21.4804 239.188 22.5612 238.695 23.4866C238.202 24.4119 237.512 25.1324 236.624 25.6482C235.737 26.1639 234.698 26.4218 233.507 26.4218ZM233.507 24.0326C234.083 24.0326 234.592 23.8772 235.031 23.5662C235.471 23.2552 235.813 22.8153 236.055 22.2465C236.306 21.6776 236.431 21.0102 236.431 20.2442C236.431 19.4705 236.306 18.7993 236.055 18.2305C235.813 17.654 235.471 17.2103 235.031 16.8994C234.592 16.5808 234.083 16.4215 233.507 16.4215C232.923 16.4215 232.411 16.5808 231.971 16.8994C231.539 17.2103 231.197 17.6502 230.947 18.2191C230.704 18.7879 230.583 19.4629 230.583 20.2442C230.583 21.0102 230.704 21.6776 230.947 22.2465C231.197 22.8153 231.543 23.2552 231.982 23.5662C232.422 23.8772 232.93 24.0326 233.507 24.0326ZM243.343 19.4023V26.2397H240.374V14.2258H243.252V16.3305H243.297C243.57 15.6631 244.014 15.117 244.628 14.6923C245.25 14.2599 246.032 14.0438 246.972 14.0438C247.814 14.0438 248.572 14.2296 249.247 14.6012C249.922 14.9653 250.457 15.5 250.852 16.2054C251.246 16.9107 251.443 17.764 251.443 18.7652V26.2397H248.485V19.2202C248.485 18.3556 248.258 17.6957 247.803 17.2407C247.348 16.778 246.733 16.5467 245.96 16.5467C245.467 16.5467 245.023 16.6491 244.628 16.8539C244.234 17.0586 243.919 17.3734 243.684 17.7981C243.457 18.2153 243.343 18.75 243.343 19.4023Z" fill="white"/>
<path fill-rule="evenodd" clip-rule="evenodd" d="M28.7811 7.88054L22.7851 0H7.88054V7.88054L0 13.8765V28.7811H7.88054L13.8765 36.6616H28.7811V28.7811L36.6616 22.7851V7.88054H28.7811V28.7811H7.88054V7.88054H28.7811Z" fill="white"/>
</svg>
