<svg width="254" height="37" viewBox="0 0 254 37" fill="none" xmlns="http://www.w3.org/2000/svg">
<path d="M52.144 26.2393V9.49256H63.2819V12.1889H55.2385V16.4893H62.4059V19.0036H55.2385V23.5429H63.4639V26.2393H52.144ZM63.8116 16.5917V14.2253H70.7287V16.5917H63.8116ZM65.5181 26.2393V12.6667C65.5181 11.8931 65.6736 11.2749 65.9846 10.8123C66.3031 10.3496 66.7392 10.0159 67.2929 9.81111C67.8542 9.59874 68.4989 9.49256 69.227 9.49256C69.5986 9.49256 69.9096 9.49256 70.1599 9.49256C70.4178 9.49256 70.6074 9.49256 70.7287 9.49256V11.8589C70.6377 11.8589 70.5088 11.8589 70.3419 11.8589C70.1751 11.8589 70.0082 11.8589 69.8413 11.8589C69.5759 11.8589 69.3408 11.8855 69.136 11.9386C68.9312 11.9917 68.7719 12.1092 68.6581 12.2913C68.5444 12.4733 68.4875 12.7615 68.4875 13.1559V26.2393H65.5181ZM70.9854 16.5917V14.2253H77.9025V16.5917H70.9854ZM72.6919 26.2393V12.6667C72.6919 11.8931 72.8474 11.2749 73.1584 10.8123C73.4769 10.3496 73.913 10.0159 74.4667 9.81111C75.028 9.59874 75.6726 9.49256 76.4008 9.49256C76.7724 9.49256 77.0834 9.49256 77.3337 9.49256C77.5915 9.49256 77.7811 9.49256 77.9025 9.49256V11.8589C77.8115 11.8589 77.6825 11.8589 77.5157 11.8589C77.3488 11.8589 77.182 11.8589 77.0151 11.8589C76.7496 11.8589 76.5145 11.8855 76.3097 11.9386C76.105 11.9917 75.9457 12.1092 75.8319 12.2913C75.7181 12.4733 75.6613 12.7615 75.6613 13.1559V26.2393H72.6919ZM83.9386 26.4213C82.7554 26.4213 81.7163 26.1634 80.8213 25.6477C79.9339 25.1319 79.2438 24.4114 78.7508 23.4861C78.2578 22.5607 78.0113 21.4799 78.0113 20.2437C78.0113 19.0074 78.2578 17.9266 78.7508 17.0013C79.2438 16.0684 79.9339 15.344 80.8213 14.8283C81.7163 14.305 82.7554 14.0433 83.9386 14.0433C85.1294 14.0433 86.1685 14.305 87.0558 14.8283C87.9432 15.344 88.6334 16.0684 89.1264 17.0013C89.6194 17.9266 89.8659 19.0074 89.8659 20.2437C89.8659 21.4799 89.6194 22.5607 89.1264 23.4861C88.6334 24.4114 87.9432 25.1319 87.0558 25.6477C86.1685 26.1634 85.1294 26.4213 83.9386 26.4213ZM83.9386 24.0322C84.515 24.0322 85.0232 23.8767 85.4631 23.5657C85.903 23.2547 86.2443 22.8148 86.487 22.246C86.7373 21.6771 86.8624 21.0097 86.8624 20.2437C86.8624 19.47 86.7373 18.7988 86.487 18.23C86.2443 17.6535 85.903 17.2098 85.4631 16.8989C85.0232 16.5803 84.515 16.421 83.9386 16.421C83.3546 16.421 82.8426 16.5803 82.4027 16.8989C81.9704 17.2098 81.6291 17.6497 81.3788 18.2186C81.1361 18.7874 81.0147 19.4625 81.0147 20.2437C81.0147 21.0097 81.1361 21.6771 81.3788 22.246C81.6291 22.8148 81.9742 23.2547 82.4141 23.5657C82.854 23.8767 83.3622 24.0322 83.9386 24.0322ZM90.7938 26.2393V14.2253H93.638V16.3073H93.729C93.949 15.5792 94.3017 15.0217 94.7871 14.6349C95.2725 14.2405 95.8755 14.0433 96.596 14.0433C96.778 14.0433 96.9525 14.0547 97.1193 14.0774C97.2862 14.0926 97.4265 14.1153 97.5403 14.1457V16.8534C97.4113 16.8079 97.2141 16.7699 96.9487 16.7396C96.6908 16.7017 96.4291 16.6827 96.1637 16.6827C95.7238 16.6827 95.318 16.7851 94.9464 16.9899C94.5823 17.1871 94.2903 17.4867 94.0703 17.8887C93.858 18.2906 93.7518 18.7912 93.7518 19.3904V26.2393H90.7938ZM103.474 26.2961C102.746 26.2961 102.101 26.1824 101.54 25.9548C100.986 25.7273 100.55 25.3708 100.232 24.8854C99.9206 24.4 99.7651 23.7705 99.7651 22.9969V11.2446H102.734V22.5077C102.734 22.8945 102.791 23.1865 102.905 23.3837C103.019 23.5809 103.178 23.7136 103.383 23.7819C103.588 23.8425 103.823 23.8729 104.088 23.8729C104.255 23.8729 104.411 23.8691 104.555 23.8615C104.699 23.8539 104.816 23.8425 104.907 23.8274L105.101 26.2165C104.934 26.2317 104.714 26.2468 104.441 26.262C104.168 26.2848 103.846 26.2961 103.474 26.2961ZM98.0586 16.5917V14.2253H105.033V16.5917H98.0586ZM109.123 9.49256V26.2393H106.154V9.49256H109.123ZM115.853 26.4213C114.67 26.4213 113.646 26.1672 112.782 25.659C111.917 25.1433 111.246 24.4228 110.768 23.4974C110.29 22.5721 110.051 21.4875 110.051 20.2437C110.051 19.0226 110.286 17.9493 110.757 17.024C111.227 16.0911 111.89 15.363 112.747 14.8397C113.612 14.3088 114.628 14.0433 115.796 14.0433C116.942 14.0433 117.932 14.305 118.766 14.8283C119.608 15.344 120.252 16.0646 120.7 16.9899C121.147 17.9152 121.371 18.996 121.371 20.2323V20.949H111.223V19.0263H118.607C118.591 18.4803 118.459 18.0062 118.208 17.6042C117.958 17.1947 117.624 16.8761 117.207 16.6486C116.79 16.4135 116.32 16.2959 115.796 16.2959C115.228 16.2959 114.731 16.4324 114.306 16.7055C113.881 16.9709 113.551 17.3274 113.316 17.7749C113.089 18.2148 112.971 18.6926 112.964 19.2084V20.9945C112.964 21.5785 113.077 22.1095 113.305 22.5873C113.54 23.0651 113.874 23.4481 114.306 23.7364C114.746 24.0246 115.273 24.1687 115.887 24.1687C116.305 24.1687 116.691 24.1004 117.048 23.9639C117.404 23.8274 117.712 23.634 117.969 23.3837C118.227 23.1334 118.409 22.8376 118.516 22.4963H121.246C121.102 23.2851 120.787 23.9753 120.302 24.5669C119.816 25.1509 119.191 25.6059 118.425 25.9321C117.666 26.2582 116.809 26.4213 115.853 26.4213ZM131.981 18.0024H129.193C129.186 17.4791 128.981 17.0657 128.579 16.7624C128.185 16.4514 127.673 16.2959 127.043 16.2959C126.467 16.2959 125.993 16.4135 125.621 16.6486C125.249 16.8837 125.064 17.2023 125.064 17.6042C125.064 17.9304 125.196 18.2034 125.462 18.4234C125.727 18.6433 126.122 18.8102 126.645 18.924L128.784 19.3676C129.914 19.6104 130.775 19.9934 131.366 20.5167C131.966 21.04 132.265 21.7454 132.265 22.6328C132.265 23.4292 132.041 24.1118 131.594 24.6806C131.154 25.2419 130.551 25.6742 129.785 25.9776C129.019 26.281 128.147 26.4327 127.168 26.4327C126.152 26.4327 125.257 26.281 124.483 25.9776C123.71 25.6742 123.095 25.2305 122.64 24.6465C122.185 24.0549 121.924 23.3344 121.855 22.4849H124.802C124.863 23.0537 125.098 23.4785 125.507 23.7591C125.924 24.0397 126.474 24.1801 127.157 24.1801C127.802 24.1801 128.314 24.0663 128.693 23.8387C129.08 23.6036 129.273 23.2813 129.273 22.8717C129.273 22.5077 129.125 22.2308 128.829 22.0412C128.541 21.844 128.154 21.6961 127.669 21.5975L125.655 21.1766C124.472 20.9339 123.588 20.5205 123.004 19.9365C122.42 19.3449 122.128 18.6016 122.128 17.7066C122.128 16.9558 122.329 16.3073 122.731 15.7612C123.141 15.2151 123.71 14.7942 124.438 14.4984C125.174 14.2026 126.027 14.0547 126.998 14.0547C128.469 14.0547 129.66 14.4036 130.57 15.1013C131.48 15.7991 131.95 16.7661 131.981 18.0024ZM142.841 18.0024H140.053C140.046 17.4791 139.841 17.0657 139.439 16.7624C139.044 16.4514 138.533 16.2959 137.903 16.2959C137.327 16.2959 136.853 16.4135 136.481 16.6486C136.109 16.8837 135.923 17.2023 135.923 17.6042C135.923 17.9304 136.056 18.2034 136.322 18.4234C136.587 18.6433 136.981 18.8102 137.505 18.924L139.644 19.3676C140.774 19.6104 141.635 19.9934 142.226 20.5167C142.825 21.04 143.125 21.7454 143.125 22.6328C143.125 23.4292 142.901 24.1118 142.454 24.6806C142.014 25.2419 141.411 25.6742 140.645 25.9776C139.879 26.281 139.007 26.4327 138.028 26.4327C137.012 26.4327 136.117 26.281 135.343 25.9776C134.57 25.6742 133.955 25.2305 133.5 24.6465C133.045 24.0549 132.783 23.3344 132.715 22.4849H135.662C135.722 23.0537 135.958 23.4785 136.367 23.7591C136.784 24.0397 137.334 24.1801 138.017 24.1801C138.661 24.1801 139.173 24.0663 139.553 23.8387C139.939 23.6036 140.133 23.2813 140.133 22.8717C140.133 22.5077 139.985 22.2308 139.689 22.0412C139.401 21.844 139.014 21.6961 138.529 21.5975L136.515 21.1766C135.332 20.9339 134.448 20.5205 133.864 19.9365C133.28 19.3449 132.988 18.6016 132.988 17.7066C132.988 16.9558 133.189 16.3073 133.591 15.7612C134.001 15.2151 134.57 14.7942 135.298 14.4984C136.033 14.2026 136.887 14.0547 137.858 14.0547C139.329 14.0547 140.52 14.4036 141.43 15.1013C142.34 15.7991 142.81 16.7661 142.841 18.0024ZM144.041 26.2393V9.49256H150.333C151.615 9.49256 152.692 9.7163 153.564 10.1638C154.444 10.6113 155.107 11.237 155.555 12.041C156.002 12.8449 156.226 13.7816 156.226 14.851C156.226 15.9205 155.999 16.8496 155.543 17.6384C155.096 18.4272 154.429 19.0339 153.541 19.4587C152.661 19.8834 151.577 20.0958 150.287 20.0958H145.805V17.5929H149.878C150.629 17.5929 151.243 17.4867 151.721 17.2743C152.199 17.0619 152.555 16.7548 152.79 16.3528C153.025 15.9432 153.139 15.4426 153.132 14.851C153.139 14.2595 153.025 13.7513 152.79 13.3266C152.555 12.9018 152.199 12.5795 151.721 12.3595C151.243 12.132 150.625 12.022 149.866 12.0296H147.079V26.2393H144.041ZM152.711 18.6395L156.852 26.2393H153.462L149.389 18.6395H152.711ZM162.274 26.4213C161.09 26.4213 160.066 26.1672 159.202 25.659C158.337 25.1433 157.666 24.4228 157.188 23.4974C156.71 22.5721 156.471 21.4875 156.471 20.2437C156.471 19.0226 156.706 17.9493 157.177 17.024C157.647 16.0911 158.311 15.363 159.168 14.8397C160.032 14.3088 161.049 14.0433 162.217 14.0433C163.362 14.0433 164.352 14.305 165.186 14.8283C166.028 15.344 166.673 16.0646 167.12 16.9899C167.568 17.9152 167.791 18.996 167.791 20.2323V20.949H157.643V19.0263H165.027C165.012 18.4803 164.879 18.0062 164.629 17.6042C164.378 17.1947 164.045 16.8761 163.627 16.6486C163.21 16.4135 162.74 16.2959 162.217 16.2959C161.648 16.2959 161.151 16.4324 160.726 16.7055C160.302 16.9709 159.972 17.3274 159.737 17.7749C159.509 18.2148 159.391 18.6926 159.384 19.2084V20.9945C159.384 21.5785 159.498 22.1095 159.725 22.5873C159.96 23.0651 160.294 23.4481 160.726 23.7364C161.166 24.0246 161.693 24.1687 162.308 24.1687C162.725 24.1687 163.112 24.1004 163.468 23.9639C163.825 23.8274 164.132 23.634 164.39 23.3837C164.648 23.1334 164.83 22.8376 164.936 22.4963H167.666C167.522 23.2851 167.207 23.9753 166.722 24.5669C166.236 25.1509 165.611 25.6059 164.845 25.9321C164.086 26.2582 163.229 26.4213 162.274 26.4213ZM171.711 19.4018V26.2393H168.742V14.2253H171.62V16.33H171.666C171.939 15.6626 172.383 15.1165 172.997 14.6918C173.619 14.2595 174.4 14.0433 175.341 14.0433C176.182 14.0433 176.941 14.2291 177.616 14.6008C178.291 14.9648 178.826 15.4995 179.22 16.2049C179.614 16.9103 179.812 17.7635 179.812 18.7647V26.2393H176.854V19.2198C176.854 18.3551 176.626 17.6953 176.171 17.2402C175.716 16.7775 175.102 16.5462 174.328 16.5462C173.835 16.5462 173.391 16.6486 172.997 16.8534C172.603 17.0582 172.288 17.3729 172.053 17.7976C171.825 18.2148 171.711 18.7495 171.711 19.4018ZM186.69 26.4213C185.506 26.4213 184.467 26.1634 183.572 25.6477C182.685 25.1319 181.995 24.4114 181.502 23.4861C181.009 22.5607 180.762 21.4799 180.762 20.2437C180.762 19.0074 181.009 17.9266 181.502 17.0013C181.995 16.0684 182.685 15.344 183.572 14.8283C184.467 14.305 185.506 14.0433 186.69 14.0433C187.88 14.0433 188.919 14.305 189.807 14.8283C190.694 15.344 191.384 16.0684 191.877 17.0013C192.37 17.9266 192.617 19.0074 192.617 20.2437C192.617 21.4799 192.37 22.5607 191.877 23.4861C191.384 24.4114 190.694 25.1319 189.807 25.6477C188.919 26.1634 187.88 26.4213 186.69 26.4213ZM186.69 24.0322C187.266 24.0322 187.774 23.8767 188.214 23.5657C188.654 23.2547 188.995 22.8148 189.238 22.246C189.488 21.6771 189.613 21.0097 189.613 20.2437C189.613 19.47 189.488 18.7988 189.238 18.23C188.995 17.6535 188.654 17.2098 188.214 16.8989C187.774 16.5803 187.266 16.421 186.69 16.421C186.106 16.421 185.594 16.5803 185.154 16.8989C184.721 17.2098 184.38 17.6497 184.13 18.2186C183.887 18.7874 183.766 19.4625 183.766 20.2437C183.766 21.0097 183.887 21.6771 184.13 22.246C184.38 22.8148 184.725 23.2547 185.165 23.5657C185.605 23.8767 186.113 24.0322 186.69 24.0322ZM204.512 14.2253L200.041 26.2393H196.776L192.305 14.2253H195.456L198.414 23.0082H198.46L201.395 14.2253H204.512ZM208.557 26.4213C207.753 26.4213 207.04 26.2886 206.418 26.0231C205.796 25.7576 205.303 25.3594 204.939 24.8285C204.583 24.2976 204.405 23.634 204.405 22.8376C204.405 22.155 204.53 21.5899 204.78 21.1424C205.038 20.6949 205.387 20.3385 205.827 20.073C206.267 19.8 206.771 19.5952 207.34 19.4587C207.909 19.3146 208.5 19.2122 209.115 19.1515C209.858 19.0681 210.446 18.996 210.878 18.9353C211.318 18.8747 211.629 18.7798 211.811 18.6509C212.001 18.522 212.095 18.321 212.095 18.0479V17.9911C212.095 17.4829 211.906 17.0771 211.527 16.7737C211.155 16.4628 210.635 16.3073 209.968 16.3073C209.301 16.3073 208.758 16.4666 208.341 16.7851C207.924 17.0961 207.689 17.5018 207.636 18.0024H204.757C204.803 17.2591 205.034 16.5917 205.451 16.0001C205.876 15.4009 206.471 14.9269 207.238 14.578C208.004 14.2215 208.921 14.0433 209.991 14.0433C211.03 14.0433 211.929 14.2139 212.687 14.5552C213.445 14.889 214.03 15.3554 214.439 15.9546C214.849 16.5462 215.053 17.2288 215.053 18.0024V26.2393H212.198V24.5441H212.152C211.963 24.9082 211.709 25.2305 211.39 25.5111C211.072 25.7918 210.677 26.0155 210.207 26.1824C209.744 26.3416 209.194 26.4213 208.557 26.4213ZM209.308 24.2483C209.915 24.2483 210.427 24.1421 210.844 23.9298C211.261 23.7098 211.576 23.4178 211.788 23.0537C212.008 22.6821 212.118 22.265 212.118 21.8023V20.5281C211.944 20.6343 211.614 20.7367 211.128 20.8353C210.643 20.9339 210.108 21.0249 209.524 21.1083C209.122 21.1614 208.751 21.2562 208.409 21.3927C208.076 21.5217 207.806 21.6999 207.602 21.9274C207.397 22.1474 207.294 22.4356 207.294 22.7921C207.302 23.2547 207.484 23.615 207.841 23.8729C208.205 24.1232 208.694 24.2483 209.308 24.2483ZM220.999 26.2961C220.27 26.2961 219.626 26.1824 219.064 25.9548C218.511 25.7273 218.075 25.3708 217.756 24.8854C217.445 24.4 217.29 23.7705 217.29 22.9969V11.2446H220.259V22.5077C220.259 22.8945 220.316 23.1865 220.43 23.3837C220.543 23.5809 220.703 23.7136 220.907 23.7819C221.112 23.8425 221.347 23.8729 221.613 23.8729C221.78 23.8729 221.935 23.8691 222.079 23.8615C222.223 23.8539 222.341 23.8425 222.432 23.8274L222.625 26.2165C222.459 26.2317 222.239 26.2468 221.966 26.262C221.692 26.2848 221.37 26.2961 220.999 26.2961ZM215.583 16.5917V14.2253H222.557V16.5917H215.583ZM223.667 26.2393V14.2253H226.636V26.2393H223.667ZM225.146 12.3823C224.668 12.3823 224.259 12.2192 223.917 11.8931C223.584 11.5669 223.417 11.1725 223.417 10.7099C223.417 10.2472 223.584 9.85282 223.917 9.52669C224.259 9.20055 224.668 9.03748 225.146 9.03748C225.624 9.03748 226.03 9.20055 226.363 9.52669C226.705 9.85282 226.875 10.2472 226.875 10.7099C226.875 11.1725 226.705 11.5669 226.363 11.8931C226.03 12.2192 225.624 12.3823 225.146 12.3823ZM233.503 26.4213C232.32 26.4213 231.281 26.1634 230.386 25.6477C229.498 25.1319 228.808 24.4114 228.315 23.4861C227.822 22.5607 227.576 21.4799 227.576 20.2437C227.576 19.0074 227.822 17.9266 228.315 17.0013C228.808 16.0684 229.498 15.344 230.386 14.8283C231.281 14.305 232.32 14.0433 233.503 14.0433C234.694 14.0433 235.733 14.305 236.62 14.8283C237.508 15.344 238.198 16.0684 238.691 17.0013C239.184 17.9266 239.43 19.0074 239.43 20.2437C239.43 21.4799 239.184 22.5607 238.691 23.4861C238.198 24.4114 237.508 25.1319 236.62 25.6477C235.733 26.1634 234.694 26.4213 233.503 26.4213ZM233.503 24.0322C234.079 24.0322 234.588 23.8767 235.028 23.5657C235.467 23.2547 235.809 22.8148 236.051 22.246C236.302 21.6771 236.427 21.0097 236.427 20.2437C236.427 19.47 236.302 18.7988 236.051 18.23C235.809 17.6535 235.467 17.2098 235.028 16.8989C234.588 16.5803 234.079 16.421 233.503 16.421C232.919 16.421 232.407 16.5803 231.967 16.8989C231.535 17.2098 231.194 17.6497 230.943 18.2186C230.701 18.7874 230.579 19.4625 230.579 20.2437C230.579 21.0097 230.701 21.6771 230.943 22.246C231.194 22.8148 231.539 23.2547 231.979 23.5657C232.418 23.8767 232.927 24.0322 233.503 24.0322ZM243.339 19.4018V26.2393H240.37V14.2253H243.248V16.33H243.293C243.567 15.6626 244.01 15.1165 244.625 14.6918C245.246 14.2595 246.028 14.0433 246.968 14.0433C247.81 14.0433 248.569 14.2291 249.244 14.6008C249.919 14.9648 250.453 15.4995 250.848 16.2049C251.242 16.9103 251.439 17.7635 251.439 18.7647V26.2393H248.481V19.2198C248.481 18.3551 248.254 17.6953 247.799 17.2402C247.344 16.7775 246.729 16.5462 245.956 16.5462C245.463 16.5462 245.019 16.6486 244.625 16.8534C244.23 17.0582 243.915 17.3729 243.68 17.7976C243.453 18.2148 243.339 18.7495 243.339 19.4018Z" fill="#333333"/>
<path fill-rule="evenodd" clip-rule="evenodd" d="M28.7772 7.88005L22.7812 -0.000488281H7.87663V7.88005L-0.00390625 13.8761V28.7806H7.87663L13.8726 36.6611H28.7772V28.7806L36.6577 22.7846V7.88005H28.7772V28.7806H7.87663V7.88005H28.7772Z" fill="#333333"/>
</svg>
