<svg width="32" height="33" viewBox="0 0 32 33" fill="none" xmlns="http://www.w3.org/2000/svg">
<g clip-path="url(#clip0_0_82)">
<path d="M26.6667 11.6466C26.6704 9.91979 26.2549 8.21783 25.4557 6.68702C24.6566 5.1562 23.4977 3.8423 22.0787 2.8582C20.6597 1.87411 19.023 1.24925 17.3092 1.03731C15.5953 0.825369 13.8557 1.03269 12.2397 1.64146C10.6237 2.25023 9.17968 3.24224 8.03168 4.53226C6.88369 5.82228 6.06606 7.37174 5.64905 9.04749C5.23203 10.7232 5.22811 12.4752 5.63761 14.1528C6.04711 15.8304 6.85779 17.3835 8 18.6786V29.6466C7.99999 30.2746 8.17735 30.8897 8.51164 31.4213C8.84594 31.9528 9.32358 32.3791 9.88955 32.6511C10.4555 32.9231 11.0868 33.0297 11.7107 32.9586C12.3346 32.8875 12.9257 32.6416 13.416 32.2493L15.584 30.516C15.7021 30.4216 15.8488 30.3703 16 30.3703C16.1512 30.3703 16.2979 30.4216 16.416 30.516L18.584 32.2493C19.0743 32.6416 19.6654 32.8875 20.2893 32.9586C20.9132 33.0297 21.5445 32.9231 22.1105 32.6511C22.6764 32.3791 23.1541 31.9528 23.4884 31.4213C23.8227 30.8897 24 30.2746 24 29.6466V18.6786C25.7177 16.7389 26.6663 14.2376 26.6667 11.6466ZM16 3.64664C17.5823 3.64664 19.129 4.11583 20.4446 4.99489C21.7602 5.87394 22.7855 7.12337 23.391 8.58517C23.9965 10.047 24.155 11.6555 23.8463 13.2074C23.5376 14.7592 22.7757 16.1847 21.6569 17.3035C20.538 18.4223 19.1126 19.1842 17.5607 19.4929C16.0089 19.8016 14.4003 19.6432 12.9385 19.0377C11.4767 18.4322 10.2273 17.4068 9.34824 16.0912C8.46919 14.7756 8 13.2289 8 11.6466C8.00212 9.52556 8.84565 7.49196 10.3455 5.99213C11.8453 4.4923 13.8789 3.64876 16 3.64664ZM20.956 30.244C20.8432 30.2999 20.7167 30.3221 20.5915 30.3079C20.4664 30.2937 20.3481 30.2437 20.2507 30.164L18.0827 28.4306C17.4926 27.9553 16.7577 27.6962 16 27.6962C15.2423 27.6962 14.5074 27.9553 13.9173 28.4306L11.7507 30.164C11.6528 30.2425 11.5348 30.2919 11.4102 30.3063C11.2856 30.3208 11.1594 30.2998 11.0462 30.2458C10.933 30.1917 10.8373 30.1068 10.7702 30.0009C10.703 29.8949 10.6671 29.7721 10.6667 29.6466V20.8706C12.2853 21.8154 14.1258 22.3132 16 22.3132C17.8742 22.3132 19.7147 21.8154 21.3333 20.8706V29.6466C21.3348 29.772 21.3 29.8951 21.233 30.0011C21.1661 30.1071 21.0698 30.1915 20.956 30.244Z" fill="#222222"/>
</g>
<defs>
<clipPath id="clip0_0_82">
<rect width="32" height="32" fill="white" transform="translate(0 0.97998)"/>
</clipPath>
</defs>
</svg>
