<svg width="32" height="32" viewBox="0 0 32 32" fill="none" xmlns="http://www.w3.org/2000/svg">
<g clip-path="url(#clip0_52_119)">
<g clip-path="url(#clip1_52_119)">
<g clip-path="url(#clip2_52_119)">
<path d="M14.2222 25.7778C14.2222 26.2694 13.8249 26.6667 13.3333 26.6667H9.77778C7.32711 26.6667 5.33334 24.6729 5.33334 22.2223V9.77782C5.33334 7.32715 7.32711 5.33337 9.77778 5.33337H16.8889C19.3396 5.33337 21.3333 7.32715 21.3333 9.77782V11.5556C21.3333 12.0472 20.936 12.4445 20.4444 12.4445C19.9529 12.4445 19.5556 12.0472 19.5556 11.5556V9.77782C19.5556 8.3076 18.3591 7.11115 16.8889 7.11115H9.77778C8.30756 7.11115 7.11111 8.3076 7.11111 9.77782V22.2223C7.11111 23.6925 8.30756 24.8889 9.77778 24.8889H13.3333C13.8249 24.8889 14.2222 25.2863 14.2222 25.7778ZM17.7778 10.6667C17.7778 10.1752 17.3804 9.77782 16.8889 9.77782H9.77778C9.28622 9.77782 8.88889 10.1752 8.88889 10.6667C8.88889 11.1583 9.28622 11.5556 9.77778 11.5556H16.8889C17.3804 11.5556 17.7778 11.1583 17.7778 10.6667ZM14.2222 15.1112C14.2222 14.6196 13.8249 14.2223 13.3333 14.2223H9.77778C9.28622 14.2223 8.88889 14.6196 8.88889 15.1112C8.88889 15.6027 9.28622 16 9.77778 16H13.3333C13.8249 16 14.2222 15.6027 14.2222 15.1112ZM9.77778 18.6667C9.28622 18.6667 8.88889 19.064 8.88889 19.5556C8.88889 20.0472 9.28622 20.4445 9.77778 20.4445H11.5556C12.0471 20.4445 12.4444 20.0472 12.4444 19.5556C12.4444 19.064 12.0471 18.6667 11.5556 18.6667H9.77778ZM26.6667 20.4445C26.6667 23.8747 23.8747 26.6667 20.4444 26.6667C17.0142 26.6667 14.2222 23.8747 14.2222 20.4445C14.2222 17.0143 17.0142 14.2223 20.4444 14.2223C23.8747 14.2223 26.6667 17.0143 26.6667 20.4445ZM24.8889 20.4445C24.8889 17.9938 22.8951 16 20.4444 16C17.9938 16 16 17.9938 16 20.4445C16 22.8952 17.9938 24.8889 20.4444 24.8889C22.8951 24.8889 24.8889 22.8952 24.8889 20.4445ZM22.0516 19.3414L20.0756 21.2383C19.9476 21.3636 19.7387 21.3663 19.6116 21.24L18.6062 20.2552C18.2542 19.9103 17.6924 19.9156 17.3493 20.2676C17.0053 20.6187 17.0107 21.1805 17.3618 21.5245L18.368 22.5103C18.7769 22.9094 19.312 23.1094 19.8462 23.1094C20.3804 23.1094 20.9138 22.9094 21.3156 22.5129L23.2827 20.6249C23.6364 20.2845 23.648 19.7218 23.3084 19.368C22.968 19.0125 22.4044 19.0027 22.0516 19.3423V19.3414Z" fill="#222222"/>
</g>
</g>
</g>
<defs>
<clipPath id="clip0_52_119">
<rect width="32" height="32" fill="white"/>
</clipPath>
<clipPath id="clip1_52_119">
<rect width="32" height="32" fill="white"/>
</clipPath>
<clipPath id="clip2_52_119">
<rect width="21.3333" height="21.3333" fill="white" transform="translate(5.33334 5.33337)"/>
</clipPath>
</defs>
</svg>
