<svg width="32" height="33" viewBox="0 0 32 33" fill="none" xmlns="http://www.w3.org/2000/svg">
<g clip-path="url(#clip0_0_88)">
<path d="M3.33333 4.31331C3.33333 2.47198 4.82533 0.97998 6.66667 0.97998C8.508 0.97998 10 2.47198 10 4.31331C10 6.15465 8.508 7.64665 6.66667 7.64665C4.82533 7.64665 3.33333 6.15465 3.33333 4.31331ZM32 23.6466C32 28.792 27.812 32.98 22.6667 32.98C17.5213 32.98 13.3333 28.792 13.3333 23.6466C13.3333 18.5013 17.5213 14.3133 22.6667 14.3133C27.812 14.3133 32 18.5013 32 23.6466ZM29.3333 23.6466C29.3333 19.9706 26.3427 16.98 22.6667 16.98C18.9907 16.98 16 19.9706 16 23.6466C16 27.3226 18.9907 30.3133 22.6667 30.3133C26.3427 30.3133 29.3333 27.3226 29.3333 23.6466ZM13.3333 16.112C11.668 18.172 10.6667 20.792 10.6667 23.6466V32.98H8V23.6466H5.33333V32.98H2.66667V23.6466H0V12.98C0 10.7746 1.79467 8.97998 4 8.97998H9.33333C11.516 8.97998 13.2947 10.7373 13.332 12.9106C13.332 12.9333 13.3333 16.112 13.3333 16.112ZM10.6667 12.98C10.6667 12.244 10.0693 11.6466 9.33333 11.6466H4C3.264 11.6466 2.66667 12.244 2.66667 12.98V20.98H10.6667V12.98ZM26.1187 20.5693L21.8147 24.8026L19.6413 22.696L17.784 24.6106L20.244 26.9946C20.6627 27.4146 21.2213 27.6466 21.816 27.6466C22.4107 27.6466 22.9693 27.4146 23.38 27.004L27.988 22.472L26.1187 20.5693Z" fill="#222222"/>
</g>
<defs>
<clipPath id="clip0_0_88">
<rect width="32" height="32" fill="white" transform="translate(0 0.97998)"/>
</clipPath>
</defs>
</svg>
