<svg width="56" height="55" viewBox="0 0 56 55" fill="none" xmlns="http://www.w3.org/2000/svg">
<g clip-path="url(#clip0_52_1391)">
<g clip-path="url(#clip1_52_1391)">
<path d="M42.3229 7.33374H14.8229C11.0314 7.33374 7.94792 10.4172 7.94792 14.2087V17.6462C7.94792 20.4891 10.2614 22.8025 13.1042 22.8025V41.7087C13.1042 45.5003 16.1876 48.5837 19.9792 48.5837H37.1667C40.9582 48.5837 44.0417 45.5003 44.0417 41.7087V22.8025C46.8845 22.8025 49.1979 20.4891 49.1979 17.6462V14.2087C49.1979 10.4172 46.1145 7.33374 42.3229 7.33374ZM23.4167 22.8025V33.115H16.5417V22.8025H23.4167ZM16.5417 41.7087V36.5525H30.2917V45.1462H19.9792C18.0834 45.1462 16.5417 43.6045 16.5417 41.7087ZM37.1667 45.1462H33.7292V36.5525H40.6042V41.7087C40.6042 43.6045 39.0624 45.1462 37.1667 45.1462ZM40.6042 33.115H26.8542V22.8025H40.6042V33.115ZM45.7604 17.6462C45.7604 18.5933 44.9887 19.365 44.0417 19.365H13.1042C12.1571 19.365 11.3854 18.5933 11.3854 17.6462V14.2087C11.3854 12.313 12.9271 10.7712 14.8229 10.7712H42.3229C44.2187 10.7712 45.7604 12.313 45.7604 14.2087V17.6462Z" fill="#222222"/>
</g>
</g>
<defs>
<clipPath id="clip0_52_1391">
<rect width="55" height="55" fill="white" transform="translate(0.5)"/>
</clipPath>
<clipPath id="clip1_52_1391">
<rect width="41.25" height="41.25" fill="white" transform="translate(7.94792 7.33374)"/>
</clipPath>
</defs>
</svg>
