<svg width="32" height="33" viewBox="0 0 32 33" fill="none" xmlns="http://www.w3.org/2000/svg">
<path d="M-0.00123958 4.97962C-0.00123958 4.24362 0.596094 3.64629 1.33209 3.64629H1.79609C3.03076 3.64629 4.26809 3.35429 5.37343 2.80229L7.61609 1.68096C8.53476 1.22229 9.56143 0.980957 10.5854 0.980957C12.2934 0.980957 13.8814 1.59562 15.1054 2.71162L16.0388 3.56229L16.8628 2.78629C18.8428 0.920957 21.9414 0.46229 24.3814 1.68096L26.6241 2.80229C27.7294 3.35562 28.9668 3.64629 30.2014 3.64629H30.6654C31.4014 3.64629 31.9988 4.24362 31.9988 4.97962C31.9988 5.71562 31.4014 6.31296 30.6654 6.31296H30.2014C28.5548 6.31296 26.9054 5.92362 25.4308 5.18762L23.1881 4.06629C21.7294 3.33829 19.8734 3.61162 18.6894 4.72629L12.4161 10.6316C11.9388 11.1103 11.8268 11.9036 12.1921 12.4116C12.4308 12.7436 12.7814 12.9436 13.1774 12.9756C13.5668 13.013 13.9521 12.8676 14.2281 12.589L19.7934 7.26229C20.3254 6.75429 21.1694 6.77162 21.6788 7.30362C22.1881 7.83562 22.1694 8.67962 21.6374 9.18896L19.2814 11.4436L20.7961 12.5796C21.3854 13.021 21.5041 13.857 21.0628 14.4463C20.8014 14.7956 20.4001 14.9796 19.9948 14.9796C19.7174 14.9796 19.4361 14.893 19.1961 14.713L17.3294 13.313L16.0934 14.4956C15.3588 15.2303 14.3441 15.6463 13.2881 15.6463C13.1801 15.6463 13.0721 15.6423 12.9628 15.633C11.7921 15.5383 10.7214 14.9316 10.0281 13.9676C8.90143 12.4023 9.12943 10.145 10.5588 8.71562L14.0881 5.39296L13.3068 4.68096C12.0828 3.56629 10.1748 3.37829 8.80543 4.06496L6.56409 5.18629C5.09076 5.92229 3.44143 6.31162 1.79343 6.31162H1.32943C0.593427 6.31162 -0.00390625 5.71429 -0.00390625 4.97829L-0.00123958 4.97962ZM31.9988 24.9796C31.9988 29.3916 28.4108 32.9796 23.9988 32.9796C19.5868 32.9796 15.9988 29.3916 15.9988 24.9796C15.9988 20.5676 19.5868 16.9796 23.9988 16.9796C28.4108 16.9796 31.9988 20.5676 31.9988 24.9796ZM29.3321 24.9796C29.3321 22.0383 26.9401 19.6463 23.9988 19.6463C21.0574 19.6463 18.6654 22.0383 18.6654 24.9796C18.6654 27.921 21.0574 30.313 23.9988 30.313C26.9401 30.313 29.3321 27.921 29.3321 24.9796ZM6.93209 20.1796C5.32676 18.9756 3.33876 18.313 1.33209 18.313C0.596094 18.313 -0.00123958 18.909 -0.00123958 19.6463C-0.00123958 20.3836 0.596094 20.9796 1.33209 20.9796C2.76543 20.9796 4.18676 21.453 5.33209 22.313L11.1988 26.713C11.4388 26.893 11.7201 26.9796 11.9974 26.9796C12.4028 26.9796 12.8028 26.7956 13.0654 26.4463C13.5081 25.8583 13.3881 25.0223 12.7988 24.581L6.93209 20.181V20.1796ZM25.7414 22.6836L23.3868 24.9436C23.3401 24.9903 23.2668 24.9903 23.2201 24.9436L22.0228 23.7716C21.4961 23.257 20.6548 23.265 20.1361 23.793C19.6214 24.3196 19.6308 25.1623 20.1561 25.6783L21.3534 26.8503C21.8934 27.3783 22.6014 27.6423 23.3081 27.6423C24.0148 27.6423 24.7161 27.3796 25.2468 26.8556L27.5881 24.6076C28.1188 24.097 28.1374 23.253 27.6268 22.7223C27.1174 22.189 26.2734 22.1743 25.7414 22.6836Z" fill="#222222"/>
</svg>
