<svg width="32" height="33" viewBox="0 0 32 33" fill="none" xmlns="http://www.w3.org/2000/svg">
<g clip-path="url(#clip0_0_58)">
<path d="M24.7747 3.8333L16.4213 1.04797C16.1478 0.956871 15.8522 0.956871 15.5787 1.04797L7.22533 3.8333C5.8972 4.27447 4.74188 5.12298 3.92352 6.25825C3.10516 7.39352 2.66537 8.75782 2.66666 10.1573V16.98C2.66666 27.064 14.9333 32.6333 15.4587 32.8653C15.6291 32.941 15.8135 32.9801 16 32.9801C16.1865 32.9801 16.3709 32.941 16.5413 32.8653C17.0667 32.6333 29.3333 27.064 29.3333 16.98V10.1573C29.3346 8.75782 28.8948 7.39352 28.0765 6.25825C27.2581 5.12298 26.1028 4.27447 24.7747 3.8333ZM26.6667 16.98C26.6667 24.2533 18.2413 29.024 16 30.1653C13.756 29.028 5.33333 24.272 5.33333 16.98V10.1573C5.3334 9.31767 5.59769 8.49935 6.08875 7.81829C6.5798 7.13723 7.27272 6.62796 8.06933 6.36263L16 3.71863L23.9307 6.36263C24.7273 6.62796 25.4202 7.13723 25.9112 7.81829C26.4023 8.49935 26.6666 9.31767 26.6667 10.1573V16.98Z" fill="#222222"/>
<path d="M20.4 12.0467L14.816 17.6467L11.824 14.5267C11.7039 14.3954 11.5588 14.2894 11.3972 14.2151C11.2355 14.1408 11.0606 14.0996 10.8828 14.0939C10.705 14.0882 10.5278 14.1181 10.3617 14.182C10.1957 14.2458 10.0441 14.3422 9.91583 14.4656C9.7876 14.5889 9.68536 14.7366 9.61511 14.9001C9.54487 15.0636 9.50805 15.2394 9.50682 15.4173C9.5056 15.5952 9.53999 15.7716 9.60797 15.936C9.67595 16.1004 9.77616 16.2496 9.90267 16.3747L12.9773 19.5747C13.2066 19.8223 13.4838 20.0209 13.792 20.1584C14.1003 20.2959 14.4332 20.3695 14.7707 20.3747H14.8147C15.1454 20.3757 15.4731 20.3111 15.7786 20.1846C16.0842 20.058 16.3616 19.872 16.5947 19.6373L22.2907 13.9413C22.4151 13.8172 22.5138 13.6697 22.5812 13.5074C22.6487 13.3451 22.6835 13.1712 22.6837 12.9954C22.6838 12.8197 22.6494 12.6456 22.5823 12.4831C22.5152 12.3207 22.4168 12.1731 22.2927 12.0487C22.1685 11.9243 22.0211 11.8255 21.8588 11.7581C21.6965 11.6907 21.5225 11.6559 21.3468 11.6557C21.171 11.6555 20.9969 11.6899 20.8345 11.757C20.672 11.8241 20.5244 11.9225 20.4 12.0467Z" fill="#222222"/>
</g>
<defs>
<clipPath id="clip0_0_58">
<rect width="32" height="32" fill="white" transform="translate(0 0.97998)"/>
</clipPath>
</defs>
</svg>
