<svg width="55" height="55" viewBox="0 0 55 55" fill="none" xmlns="http://www.w3.org/2000/svg">
<g clip-path="url(#clip0_52_1365)">
<g clip-path="url(#clip1_52_1365)">
<path d="M40.1042 28.8181C40.1042 30.2412 38.9492 31.3962 37.5261 31.3962C36.1029 31.3962 34.9479 30.2412 34.9479 28.8181C34.9479 27.395 36.1029 26.24 37.5261 26.24C38.9492 26.24 40.1042 27.395 40.1042 28.8181ZM46.1198 22.8025C47.5429 22.8025 48.6979 21.6475 48.6979 20.2244C48.6979 18.8012 47.5429 17.6462 46.1198 17.6462C44.6967 17.6462 43.5417 18.8012 43.5417 20.2244C43.5417 21.6475 44.6967 22.8025 46.1198 22.8025ZM37.5261 34.8337C36.1029 34.8337 34.9479 35.9887 34.9479 37.4119C34.9479 38.835 36.1029 39.99 37.5261 39.99C38.9492 39.99 40.1042 38.835 40.1042 37.4119C40.1042 35.9887 38.9492 34.8337 37.5261 34.8337ZM46.1198 26.24C44.6967 26.24 43.5417 27.395 43.5417 28.8181C43.5417 30.2412 44.6967 31.3962 46.1198 31.3962C47.5429 31.3962 48.6979 30.2412 48.6979 28.8181C48.6979 27.395 47.5429 26.24 46.1198 26.24ZM46.1198 34.8337C44.6967 34.8337 43.5417 35.9887 43.5417 37.4119C43.5417 38.835 44.6967 39.99 46.1198 39.99C47.5429 39.99 48.6979 38.835 48.6979 37.4119C48.6979 35.9887 47.5429 34.8337 46.1198 34.8337ZM46.1198 43.4275C44.6967 43.4275 43.5417 44.5825 43.5417 46.0056C43.5417 47.4287 44.6967 48.5837 46.1198 48.5837C47.5429 48.5837 48.6979 47.4287 48.6979 46.0056C48.6979 44.5825 47.5429 43.4275 46.1198 43.4275ZM37.5261 43.4275C36.1029 43.4275 34.9479 44.5825 34.9479 46.0056C34.9479 47.4287 36.1029 48.5837 37.5261 48.5837C38.9492 48.5837 40.1042 47.4287 40.1042 46.0056C40.1042 44.5825 38.9492 43.4275 37.5261 43.4275ZM28.9323 34.8337C27.5092 34.8337 26.3542 35.9887 26.3542 37.4119C26.3542 38.835 27.5092 39.99 28.9323 39.99C30.3554 39.99 31.5104 38.835 31.5104 37.4119C31.5104 35.9887 30.3554 34.8337 28.9323 34.8337ZM28.9323 43.4275C27.5092 43.4275 26.3542 44.5825 26.3542 46.0056C26.3542 47.4287 27.5092 48.5837 28.9323 48.5837C30.3554 48.5837 31.5104 47.4287 31.5104 46.0056C31.5104 44.5825 30.3554 43.4275 28.9323 43.4275ZM44.2533 13.3494L23.7761 33.8266L21.1979 31.2484V13.3751C19.9278 12.5175 16.9956 10.7712 14.1803 10.7712C12.3636 10.7712 10.8854 12.2494 10.8854 14.0661V48.5837H7.44794V14.0661C7.44794 10.3536 10.4678 7.33374 14.1803 7.33374C18.2331 7.33374 22.1278 9.8139 23.4804 10.7712H41.6768L44.255 13.3494H44.2533ZM38.5333 14.2087H24.6354V28.1066L38.5333 14.2087Z" fill="#222222"/>
</g>
</g>
<defs>
<clipPath id="clip0_52_1365">
<rect width="55" height="55" fill="white"/>
</clipPath>
<clipPath id="clip1_52_1365">
<rect width="41.25" height="41.25" fill="white" transform="translate(7.44794 7.33374)"/>
</clipPath>
</defs>
</svg>
