<svg width="29" height="35" viewBox="0 0 29 35" fill="none" xmlns="http://www.w3.org/2000/svg">
<path d="M9.39585 13.8543C9.39585 14.6578 9.58251 15.4191 9.91501 16.0957C9.20043 17.0116 8.75564 18.1476 8.69585 19.3857C7.32356 17.9449 6.47918 15.9966 6.47918 13.8557C6.47918 8.88136 11.0321 4.9497 16.1902 6.00845C19.2265 6.63261 21.6867 9.07824 22.3342 12.1101C22.5296 13.0259 22.5661 13.9228 22.4669 14.7803C22.3823 15.5066 21.745 16.0432 21.0129 16.0432H20.9473C20.084 16.0432 19.4773 15.2747 19.5721 14.4172C19.6363 13.8412 19.6027 13.2359 19.4554 12.6191C19.0208 10.7918 17.5304 9.31157 15.7002 8.89011C12.3665 8.12449 9.39439 10.6503 9.39439 13.8557L9.39585 13.8543ZM3.72293 11.9657C4.12251 9.64261 5.25855 7.52511 7.02022 5.87282C9.25001 3.78303 12.1696 2.75053 15.2306 2.94011C20.9954 3.31345 25.5031 8.36365 25.4361 14.4099C25.4083 16.9416 23.2879 18.957 20.7577 18.957H17.249C16.8931 17.748 15.7877 16.8584 14.4636 16.8584C12.8521 16.8584 11.5469 18.1637 11.5469 19.7751C11.5469 21.3866 12.8521 22.6918 14.4636 22.6918C15.2481 22.6918 15.9583 22.3782 16.4819 21.8737H20.7577C24.8688 21.8737 28.2944 18.5997 28.3527 14.4901C28.4606 6.87615 22.7411 0.503237 15.4188 0.0307374C11.5338 -0.221554 7.84856 1.09824 5.02668 3.74657C2.84064 5.79553 1.38668 8.50803 0.863138 11.4262C0.70418 12.3128 1.40564 13.1266 2.30543 13.1266C2.99376 13.1266 3.60772 12.6468 3.72293 11.9672V11.9657ZM14.5 24.7918C9.11147 24.7918 4.44918 28.1343 2.89897 33.1072C2.65835 33.8757 3.08856 34.6939 3.8571 34.9345C4.62418 35.1664 5.44231 34.7434 5.68293 33.9764C6.83355 30.2868 10.4575 27.7084 14.4986 27.7084C18.5396 27.7084 22.165 30.2868 23.3142 33.9764C23.5096 34.6005 24.0842 35.0001 24.7069 35.0001C24.8513 35.0001 24.9956 34.9782 25.1415 34.9345C25.91 34.6939 26.3388 33.8757 26.0996 33.1072C24.5494 28.1343 19.8871 24.7918 14.4986 24.7918H14.5Z" fill="#222222"/>
</svg>
