<svg width="32" height="33" viewBox="0 0 32 33" fill="none" xmlns="http://www.w3.org/2000/svg">
<g clip-path="url(#clip0_0_65)">
<path d="M10.276 13.3213C10.7973 13.8426 10.7973 14.6866 10.276 15.2066C9.75467 15.728 8.91067 15.728 8.39067 15.2066C7.86933 14.6853 7.86933 13.8413 8.39067 13.3213C8.912 12.8 9.756 12.8 10.276 13.3213ZM28.7453 21.4346L27.992 22.188C27.956 23.832 27.3187 25.464 26.0787 26.72L21.856 30.9973C20.5987 32.2706 18.9213 32.9746 17.132 32.98H17.1093C15.3293 32.98 13.656 32.2866 12.3973 31.028L2.50933 21.224C1.64267 20.3586 1.224 19.168 1.35733 17.9533L2.37733 8.73197C2.44533 8.12397 2.916 7.63997 3.52133 7.5573L12.7067 6.3013C13.9493 6.13596 15.2 6.55863 16.0773 7.43597L26.044 17.3186C26.56 17.8346 26.9733 18.416 27.2853 19.036C28.368 17.4813 28.216 15.3093 26.8293 13.9226L16.708 4.0493C16.4027 3.74397 15.9813 3.60263 15.5733 3.65997L6.388 4.91596C5.656 5.01463 4.98533 4.50396 4.88533 3.77596C4.78667 3.04663 5.29733 2.37463 6.02533 2.27463L15.212 1.0173C16.44 0.842632 17.704 1.27197 18.5827 2.1533L28.7013 12.0266C31.296 14.62 31.3107 18.836 28.744 21.436L28.7453 21.4346ZM24.1613 19.208L14.1947 9.3253C13.8973 9.02797 13.48 8.89063 13.0653 8.94263L4.912 10.0586L4.00667 18.2453C3.96267 18.6493 4.10133 19.0466 4.38933 19.3333L14.2773 29.1373C15.036 29.8973 16.04 30.312 17.108 30.312H17.1213C18.196 30.3093 19.2027 29.8866 19.956 29.1213L24.1787 24.844C25.7187 23.284 25.7107 20.7546 24.16 19.2053L24.1613 19.208Z" fill="#222222"/>
</g>
<defs>
<clipPath id="clip0_0_65">
<rect width="32" height="32" fill="white" transform="translate(0 0.97998)"/>
</clipPath>
</defs>
</svg>
