<svg width="32" height="33" viewBox="0 0 32 33" fill="none" xmlns="http://www.w3.org/2000/svg">
<g clip-path="url(#clip0_0_50)">
<path d="M21.3333 0.97998H21.16C20.5633 0.98565 19.9853 1.18933 19.5169 1.55905C19.0485 1.92876 18.7161 2.44357 18.572 3.02265C18.4176 3.58643 18.0823 4.08388 17.6176 4.43845C17.1529 4.79303 16.5845 4.98509 16 4.98509C15.4155 4.98509 14.8471 4.79303 14.3824 4.43845C13.9177 4.08388 13.5824 3.58643 13.428 3.02265C13.2839 2.44357 12.9515 1.92876 12.4831 1.55905C12.0147 1.18933 11.4367 0.98565 10.84 0.97998L10.6667 0.97998C8.89921 0.982098 7.20474 1.68516 5.95496 2.93494C4.70518 4.18472 4.00212 5.87919 4 7.64665V28.98C4 30.0408 4.42143 31.0583 5.17157 31.8084C5.92172 32.5586 6.93913 32.98 8 32.98H10.84C11.4367 32.9743 12.0147 32.7706 12.4831 32.4009C12.9515 32.0312 13.2839 31.5164 13.428 30.9373C13.5824 30.3735 13.9177 29.8761 14.3824 29.5215C14.8471 29.1669 15.4155 28.9749 16 28.9749C16.5845 28.9749 17.1529 29.1669 17.6176 29.5215C18.0823 29.8761 18.4176 30.3735 18.572 30.9373C18.7161 31.5164 19.0485 32.0312 19.5169 32.4009C19.9853 32.7706 20.5633 32.9743 21.16 32.98H24C25.0609 32.98 26.0783 32.5586 26.8284 31.8084C27.5786 31.0583 28 30.0408 28 28.98V7.64665C27.9979 5.87919 27.2948 4.18472 26.045 2.93494C24.7953 1.68516 23.1008 0.982098 21.3333 0.97998ZM24 30.3133L21.1427 30.2293C20.8295 29.0979 20.1518 28.1014 19.2146 27.3943C18.2774 26.6873 17.1331 26.3093 15.9591 26.3189C14.7852 26.3284 13.6472 26.7251 12.7216 27.4473C11.7961 28.1695 11.1347 29.1769 10.84 30.3133H8C7.64638 30.3133 7.30724 30.1728 7.05719 29.9228C6.80714 29.6727 6.66667 29.3336 6.66667 28.98V23.6466H9.33333C9.68696 23.6466 10.0261 23.5062 10.2761 23.2561C10.5262 23.0061 10.6667 22.6669 10.6667 22.3133C10.6667 21.9597 10.5262 21.6206 10.2761 21.3705C10.0261 21.1205 9.68696 20.98 9.33333 20.98H6.66667V7.64665C6.66667 6.58578 7.08809 5.56837 7.83824 4.81822C8.58839 4.06807 9.6058 3.64665 10.6667 3.64665L10.8573 3.73065C11.1696 4.85522 11.8413 5.84671 12.7699 6.55378C13.6985 7.26086 14.8329 7.64467 16 7.64665C17.1829 7.63658 18.3301 7.24038 19.2671 6.51833C20.204 5.79628 20.8795 4.78791 21.1907 3.64665H21.3333C22.3942 3.64665 23.4116 4.06807 24.1618 4.81822C24.9119 5.56837 25.3333 6.58578 25.3333 7.64665V20.98H22.6667C22.313 20.98 21.9739 21.1205 21.7239 21.3705C21.4738 21.6206 21.3333 21.9597 21.3333 22.3133C21.3333 22.6669 21.4738 23.0061 21.7239 23.2561C21.9739 23.5062 22.313 23.6466 22.6667 23.6466H25.3333V28.98C25.3333 29.3336 25.1929 29.6727 24.9428 29.9228C24.6928 30.1728 24.3536 30.3133 24 30.3133Z" fill="#222222"/>
<path d="M17.3333 20.98H14.6666C14.313 20.98 13.9739 21.1205 13.7238 21.3705C13.4738 21.6206 13.3333 21.9597 13.3333 22.3133C13.3333 22.6669 13.4738 23.0061 13.7238 23.2561C13.9739 23.5062 14.313 23.6466 14.6666 23.6466H17.3333C17.6869 23.6466 18.0261 23.5062 18.2761 23.2561C18.5262 23.0061 18.6666 22.6669 18.6666 22.3133C18.6666 21.9597 18.5262 21.6206 18.2761 21.3705C18.0261 21.1205 17.6869 20.98 17.3333 20.98Z" fill="#222222"/>
</g>
<defs>
<clipPath id="clip0_0_50">
<rect width="32" height="32" fill="white" transform="translate(0 0.97998)"/>
</clipPath>
</defs>
</svg>
