<svg width="35" height="35" viewBox="0 0 35 35" fill="none" xmlns="http://www.w3.org/2000/svg">
<path d="M32.8596 20.9538L29.801 24.0095V26.449C29.801 28.7922 27.8942 30.699 25.551 30.699H23.1129L20.0557 33.7548C19.2553 34.5566 18.1872 35 17.051 35C15.9148 35 14.8481 34.558 14.0462 33.7548L10.9905 30.699H8.55099C6.20783 30.699 4.301 28.7922 4.301 26.449V24.0095L1.24525 20.9538C-0.412254 19.2977 -0.412254 16.6003 1.24525 14.9428L4.301 11.8871V9.44901C4.301 7.10584 6.20783 5.19901 8.55099 5.19901H10.9905L14.0462 2.14184C15.6527 0.533928 18.4535 0.538178 20.0572 2.14184L23.1129 5.19759H25.551C26.3344 5.19759 26.9677 5.83226 26.9677 6.61426C26.9677 7.39626 26.3344 8.03093 25.551 8.03093H22.5264C22.1496 8.03093 21.7897 7.88218 21.5248 7.61585L18.0526 4.14359C17.5185 3.61093 16.5877 3.60809 16.0494 4.14359L12.5786 7.61585C12.3122 7.88218 11.9538 8.03093 11.577 8.03093H8.55099C7.769 8.03093 7.13433 8.66701 7.13433 9.44759V12.4722C7.13433 12.8476 6.98558 13.2088 6.71925 13.4738L3.24841 16.9446C2.69591 17.4971 2.69591 18.3953 3.24841 18.9492L6.71925 22.42C6.98558 22.6863 7.13433 23.0448 7.13433 23.4216V26.4476C7.13433 27.2296 7.769 27.8643 8.55099 27.8643H11.577C11.9538 27.8643 12.3137 28.013 12.5786 28.2793L16.0494 31.7502C16.5863 32.2857 17.5185 32.2857 18.0512 31.7502L21.5248 28.2793C21.7912 28.013 22.1496 27.8643 22.5264 27.8643H25.551C26.333 27.8643 26.9677 27.2296 26.9677 26.4476V23.4216C26.9677 23.0448 27.1164 22.6849 27.3827 22.42L30.855 18.9492C31.4075 18.3967 31.4075 17.4971 30.855 16.9446C30.3025 16.3907 30.3025 15.4939 30.855 14.9414C31.4089 14.3889 32.3057 14.3875 32.8596 14.9414C34.5142 16.5975 34.5142 19.2934 32.8596 20.9509V20.9538ZM15.1881 20.3545L10.9126 16.1215C10.3544 15.569 9.4605 15.5761 8.908 16.1314C8.35691 16.6868 8.36258 17.5835 8.91791 18.1346L13.1948 22.369C14.0647 23.2303 15.2093 23.6624 16.3526 23.6624C17.4958 23.6624 18.6433 23.2275 19.5146 22.3619L32.1654 9.79468C32.7207 9.2436 32.7236 8.34685 32.1711 7.79151C31.6186 7.23618 30.7232 7.23193 30.1679 7.78443L17.5171 20.3531C16.8753 20.992 15.8312 20.992 15.1881 20.3545Z" fill="#222222"/>
</svg>
