<svg width="32" height="32" viewBox="0 0 32 32" fill="none" xmlns="http://www.w3.org/2000/svg">
<g clip-path="url(#clip0_52_115)">
<g clip-path="url(#clip1_52_115)">
<path d="M12.6667 18.2222H21.5556V20H12.6667V18.2222ZM26 10.7431V25.3333H8.22222V21.1716L10 22.9493V23.5556H24.2222V12H18V5.77778H10.8889C10.3991 5.77778 10 6.176 10 6.66667V8.61244C9.57422 8.50311 9.12711 8.44444 8.66666 8.44444C8.51733 8.44444 8.36888 8.45067 8.22222 8.46311V6.66667C8.22222 5.19644 9.41866 4 10.8889 4H19.2569L26 10.7431ZM19.7778 10.2222H22.9653L19.7778 7.03467V10.2222ZM21.5556 14.6667H13.9262C13.8196 15.3049 13.5991 15.9049 13.2871 16.4444H21.5564L21.5556 14.6667ZM6.44444 21.3244V16.5511C5.632 15.8987 5.11111 14.8987 5.11111 13.7778C5.11111 11.8169 6.70577 10.2222 8.66666 10.2222C10.6276 10.2222 12.2222 11.8169 12.2222 13.7778C12.2222 14.8987 11.7013 15.8987 10.8889 16.5511V21.3244L8.66666 19.1022L6.44444 21.3244ZM6.88888 13.7778C6.88888 14.7582 7.68622 15.5556 8.66666 15.5556C9.64711 15.5556 10.4444 14.7582 10.4444 13.7778C10.4444 12.7973 9.64711 12 8.66666 12C7.68622 12 6.88888 12.7973 6.88888 13.7778Z" fill="#222222"/>
</g>
</g>
<defs>
<clipPath id="clip0_52_115">
<rect width="32" height="32" fill="white"/>
</clipPath>
<clipPath id="clip1_52_115">
<rect width="21.3333" height="21.3333" fill="white" transform="translate(4.66666 4)"/>
</clipPath>
</defs>
</svg>
