<svg width="57" height="57" viewBox="0 0 57 57" fill="none" xmlns="http://www.w3.org/2000/svg">
<g clip-path="url(#clip0_52_1378)">
<g clip-path="url(#clip1_52_1378)">
<path d="M48.2604 46.3774H46.4948V16.3618C46.4948 11.494 42.5345 7.53369 37.6667 7.53369H20.0104C15.1426 7.53369 11.1823 11.494 11.1823 16.3618V46.3774H9.41666C8.44203 46.3774 7.65103 47.1684 7.65103 48.1431C7.65103 49.1177 8.44203 49.9087 9.41666 49.9087H48.2604C49.235 49.9087 50.026 49.1177 50.026 48.1431C50.026 47.1684 49.235 46.3774 48.2604 46.3774ZM42.9635 46.3774H30.6042V30.4868H42.9635V46.3774ZM42.9635 16.3618V26.9556H30.6042V11.0649H37.6667C40.587 11.0649 42.9635 13.4415 42.9635 16.3618ZM20.0104 11.0649H27.0729V26.9556H14.7135V16.3618C14.7135 13.4415 17.0901 11.0649 20.0104 11.0649ZM14.7135 30.4868H27.0729V46.3774H14.7135V30.4868Z" fill="#222222"/>
</g>
</g>
<defs>
<clipPath id="clip0_52_1378">
<rect width="56.5" height="56.5" fill="white"/>
</clipPath>
<clipPath id="clip1_52_1378">
<rect width="42.375" height="42.375" fill="white" transform="translate(7.65103 7.53369)"/>
</clipPath>
</defs>
</svg>
