<svg width="36" height="36" viewBox="0 0 36 36" fill="none" xmlns="http://www.w3.org/2000/svg">
<rect width="36" height="36" rx="18" fill="white"/>
<path d="M24.8178 13.7733C24.3053 13.9957 23.7633 14.1426 23.2087 14.2097C23.7938 13.8601 24.2323 13.3102 24.4428 12.662C23.893 12.9893 23.2911 13.2199 22.6633 13.3438C22.2436 12.8887 21.6848 12.5858 21.0745 12.4825C20.4642 12.3793 19.8368 12.4815 19.2909 12.7732C18.7449 13.0649 18.3112 13.5296 18.0578 14.0943C17.8043 14.6591 17.7455 15.292 17.8905 15.8938C16.7788 15.8375 15.6913 15.5481 14.6987 15.0441C13.7061 14.5402 12.8307 13.8331 12.1292 12.9688C11.8831 13.3984 11.7539 13.885 11.7542 14.3801C11.7533 14.8399 11.8662 15.2928 12.0827 15.6985C12.2992 16.1041 12.6126 16.4499 12.9951 16.7051C12.5505 16.693 12.1155 16.5737 11.7269 16.3574V16.3915C11.7302 17.0357 11.956 17.6591 12.366 18.156C12.776 18.653 13.345 18.9931 13.9769 19.1188C13.7337 19.1928 13.4811 19.2318 13.2269 19.2347C13.0509 19.2326 12.8754 19.2167 12.7019 19.187C12.8819 19.7411 13.2301 20.2255 13.6981 20.5725C14.1661 20.9196 14.7307 21.1121 15.3133 21.1233C14.3296 21.8974 13.115 22.3198 11.8633 22.3233C11.6354 22.3241 11.4076 22.3104 11.1815 22.2824C12.4595 23.1076 13.9488 23.5456 15.4701 23.5438C16.5199 23.5547 17.5613 23.3563 18.5336 22.9602C19.5058 22.5641 20.3894 21.9782 21.1327 21.2368C21.876 20.4954 22.4642 19.6134 22.8627 18.6421C23.2613 17.6709 23.4624 16.6299 23.4542 15.5801C23.4542 15.4642 23.4542 15.3415 23.4542 15.2188C23.9892 14.8198 24.4506 14.3306 24.8178 13.7733Z" fill="#141517"/>
</svg>
