<svg width="36" height="36" viewBox="0 0 36 36" fill="none" xmlns="http://www.w3.org/2000/svg">
<rect width="36" height="36" rx="18" fill="white"/>
<path d="M25.5 16.4397C25.5337 15.4638 25.3203 14.4952 24.8795 13.6238C24.5805 13.2663 24.1655 13.025 23.7068 12.942C21.8096 12.7698 19.9046 12.6993 18 12.7306C16.1022 12.6979 14.2041 12.7661 12.3136 12.9352C11.9398 13.0032 11.594 13.1785 11.3182 13.4397C10.7045 14.0056 10.6363 14.9738 10.5682 15.792C10.4692 17.2631 10.4692 18.7391 10.5682 20.2102C10.5879 20.6707 10.6564 21.1278 10.7727 21.5738C10.8549 21.9182 11.0212 22.2368 11.2568 22.5011C11.5345 22.7762 11.8884 22.9614 12.2727 23.0329C13.7426 23.2143 15.2238 23.2895 16.7045 23.2579C19.0909 23.292 21.1841 23.2579 23.6591 23.067C24.0528 22.9999 24.4167 22.8144 24.7022 22.5352C24.8931 22.3442 25.0357 22.1105 25.1181 21.8533C25.362 21.1051 25.4817 20.3221 25.4727 19.5352C25.5 19.1533 25.5 16.8488 25.5 16.4397ZM16.4591 19.9443V15.7238L20.4954 17.8443C19.3636 18.4715 17.8704 19.1806 16.4591 19.9443Z" fill="#141517"/>
</svg>
